<?xml version="1.0" encoding="UTF-8" standalone="no"?>
<svg
   xmlns:dc="http://purl.org/dc/elements/1.1/"
   xmlns:cc="http://creativecommons.org/ns#"
   xmlns:rdf="http://www.w3.org/1999/02/22-rdf-syntax-ns#"
   xmlns:svg="http://www.w3.org/2000/svg"
   xmlns="http://www.w3.org/2000/svg"
   xmlns:sodipodi="http://sodipodi.sourceforge.net/DTD/sodipodi-0.dtd"
   xmlns:inkscape="http://www.inkscape.org/namespaces/inkscape"
   width="210mm"
   height="297mm"
   viewBox="0 0 210 297"
   version="1.1"
   id="svg40"
   sodipodi:docname="dessin2.svg"
   inkscape:version="1.0.1 (3bc2e813f5, 2020-09-07)"
   inkscape:export-filename="C:\Users\Benja\image.png"
   inkscape:export-xdpi="117"
   inkscape:export-ydpi="117">
  <defs
     id="defs34" />
  <sodipodi:namedview
     id="base"
     pagecolor="#ffffff"
     bordercolor="#666666"
     borderopacity="1.0"
     inkscape:pageopacity="0.0"
     inkscape:pageshadow="2"
     inkscape:zoom="0.33639191"
     inkscape:cx="1646.1191"
     inkscape:cy="570.60723"
     inkscape:document-units="mm"
     inkscape:current-layer="layer1"
     inkscape:document-rotation="0"
     showgrid="false"
     inkscape:window-width="1440"
     inkscape:window-height="830"
     inkscape:window-x="-7"
     inkscape:window-y="-7"
     inkscape:window-maximized="1"
     inkscape:snap-global="true" />
  <metadata
     id="metadata37">
    <rdf:RDF>
      <cc:Work
         rdf:about="">
        <dc:format>image/svg+xml</dc:format>
        <dc:type
           rdf:resource="http://purl.org/dc/dcmitype/StillImage" />
        <dc:title />
      </cc:Work>
    </rdf:RDF>
  </metadata>
  <g
     inkscape:label="Calque 1"
     inkscape:groupmode="layer"
     id="layer1">
    <path
       style="fill:#ffffff;stroke:#000000;stroke-width:0.264583px;stroke-linecap:butt;stroke-linejoin:miter;stroke-opacity:1"
       d="m 25.390605,148.86913 -11.091685,41.29314 8.15172,1.87088 2.271791,9.48807 41.694046,1.87089 20.312483,-38.75408 31.5378,-5.07812 42.62949,41.82768 -15.10073,17.50615 9.75534,3.20724 15.23437,-10.55715 -1.46999,-9.2208 7.75082,-6.1472 9.88897,8.01809 8.01809,-5.07812 -43.29766,-51.18212 3.34087,-10.55714 21.11429,-4.00905 33.27505,37.01683 -2.13815,-92.475253 -2.80633,-25.256971 -34.74504,2.271792 -4.81085,-31.003266 -12.56167,1.469983 4.81085,30.335092 -82.452647,23.386081 -22.985179,0.133636 22.049734,31.537806 -8.15172,38.21954 z"
       id="path52"
       inkscape:export-filename="C:\Users\Benja\Desktop\testUnity\Assets\map.png"
       inkscape:export-xdpi="117.97"
       inkscape:export-ydpi="117.97" />
    <path
       style="fill:#ffffff;stroke:#000000;stroke-width:0.264583px;stroke-linecap:butt;stroke-linejoin:miter;stroke-opacity:1"
       d="m 114.12409,169.98342 -0.40091,3.60814 -4.00904,1.46998 0.26727,10.28988 5.61266,-0.66818 z"
       id="path56"
       inkscape:export-filename="C:\Users\Benja\Desktop\testUnity\Assets\map.png"
       inkscape:export-xdpi="117.97"
       inkscape:export-ydpi="117.97" />
    <path
       style="fill:#ffffff;stroke:#000000;stroke-width:0.264583px;stroke-linecap:butt;stroke-linejoin:miter;stroke-opacity:1"
       d="m 112.2532,192.30042 4.40995,-2.40542 2.67269,2.67269 1.73725,15.7689 -6.68173,0.53454 z"
       id="path60"
       inkscape:export-filename="C:\Users\Benja\Desktop\testUnity\Assets\map.png"
       inkscape:export-xdpi="117.97"
       inkscape:export-ydpi="117.97" />
    <path
       style="fill:#ffffff;stroke:#000000;stroke-width:0.264583px;stroke-linecap:butt;stroke-linejoin:miter;stroke-opacity:1"
       d="m 82.987189,3.4745038 -1.603619,3.8754081 8.552625,2.8063301 -1.469983,9.354433 18.307958,25.657875 7.21628,-2.004521 5.34539,7.216275 L 83.254457,60.803816 82.719917,36.615925 68.554634,8.2853553 Z"
       id="path62"
       inkscape:export-filename="C:\Users\Benja\Desktop\testUnity\Assets\map.png"
       inkscape:export-xdpi="117.97"
       inkscape:export-ydpi="117.97" />
    <path
       style="fill:#ffffff;stroke:#000000;stroke-width:0.264583px;stroke-linecap:butt;stroke-linejoin:miter;stroke-opacity:1"
       d="M 67.218284,24.588797 52.919365,28.33057 51.182113,40.357698 72.430041,39.021351 73.499119,29.934187 Z"
       id="path64"
       inkscape:export-filename="C:\Users\Benja\Desktop\testUnity\Assets\map.png"
       inkscape:export-xdpi="117.97"
       inkscape:export-ydpi="117.97" />
    <path
       style="fill:#ffffff;stroke-width:0.714286"
       d="m 569.89941,832.6072 -17.23629,-5.73364 28.13806,-32.58995 c 15.47593,-17.92449 28.05368,-32.91396 27.95057,-33.30994 -0.10312,-0.39597 -36.48063,-36.33739 -80.83891,-79.86982 -65.35776,-64.14093 -80.93424,-79.08286 -82.14286,-78.7965 -0.82029,0.19435 -27.84858,4.58733 -60.06286,9.76217 -32.21429,5.17485 -58.60601,9.45725 -58.64828,9.51646 -0.0423,0.0592 -17.01568,32.45484 -37.71869,71.99029 -20.70302,39.53545 -38.03165,72.41572 -38.50808,73.06727 -0.80489,1.10075 -4.35511,1.02838 -50.13845,-1.02225 -96.11278,-4.30485 -106.078371,-4.78143 -106.384583,-5.08765 -0.170271,-0.17027 -2.170697,-8.13173 -4.445391,-17.69214 -3.493214,-14.68178 -4.361018,-17.46819 -5.585297,-17.93366 -0.797219,-0.3031 -7.641935,-1.94564 -15.21048,-3.65009 l -13.760989,-3.09899 0.39805,-1.81232 c 0.218928,-0.99677 9.505134,-35.71928 20.636014,-77.16113 l 20.237963,-75.34882 76.171243,0.16335 c 41.89419,0.0899 76.16981,-0.0708 76.16804,-0.35714 -0.001,-0.28628 6.93685,-33.06102 15.41916,-72.83276 l 15.42236,-72.31227 -16.07583,-23.04488 c -8.84171,-12.67468 -27.31762,-39.1163 -41.05758,-58.75916 l -24.98177,-35.71429 6.53129,-0.45576 c 3.59222,-0.25067 22.76344,-0.50324 42.60273,-0.56126 l 36.07142,-0.1055 155.53873,-44.14413 c 85.54629,-24.27926 155.7465,-44.3519 156.00045,-44.60585 0.34909,-0.34909 -15.5074,-103.18481 -17.36655,-112.629089 l -0.35183,-1.787307 22.72383,-2.626076 c 12.49812,-1.444342 22.83575,-2.514168 22.97253,-2.377392 0.13678,0.136776 4.29008,26.390654 9.22957,58.341954 4.93948,31.9513 9.0416,58.17842 9.11582,58.28249 0.0742,0.10407 29.49898,-1.73245 65.38837,-4.08116 35.88938,-2.34871 65.41223,-4.11159 65.6063,-3.91751 0.19407,0.19409 2.69171,21.31632 5.55036,46.93831 l 5.19743,46.58543 3.97078,170 c 2.18393,93.5 3.87993,171.5937 3.76893,173.54158 l -0.20186,3.54157 -61.77327,-68.72015 c -34.84715,-38.76598 -62.29033,-68.72015 -62.95949,-68.72015 -2.46921,0 -79.3551,14.87525 -79.90427,15.45923 -0.91402,0.97193 -12.94757,39.71861 -12.60923,40.60031 0.16764,0.43685 36.83455,43.97204 81.48203,96.74485 73.12598,86.43409 81.05047,96.03849 79.8993,96.8371 -0.70286,0.48759 -7.16011,4.62949 -14.34944,9.20422 l -13.07152,8.31769 -18.48717,-15.01027 c -10.16795,-8.25565 -18.69787,-15.01027 -18.95538,-15.01027 -0.25752,0 -7.20762,5.33982 -15.44466,11.86627 -13.80472,10.93789 -14.94626,12.01366 -14.59059,13.75 0.21223,1.03605 1.36466,8.15159 2.56096,15.8123 1.1963,7.66072 2.3216,14.61003 2.50066,15.44292 0.27953,1.3002 -3.70212,4.30517 -28.15674,21.25001 -15.66527,10.85457 -28.59841,19.7045 -28.74032,19.66643 -0.1419,-0.0379 -8.01434,-2.64943 -17.49429,-5.80293 z"
       id="path66"
       transform="scale(0.26458333)"
       inkscape:export-filename="C:\Users\Benja\Desktop\testUnity\Assets\map.png"
       inkscape:export-xdpi="117.97"
       inkscape:export-ydpi="117.97" />
    <path
       style="fill:#ffffff;stroke-width:0.714286"
       d="m 569.86062,832.61256 -17.27505,-5.72186 9.68484,-11.16993 c 21.52084,-24.821 46.30646,-53.78636 46.50694,-54.34973 0.18285,-0.51381 -132.46515,-131.19118 -154.34662,-152.05365 -5.29233,-5.04587 -8.08811,-7.23488 -8.92857,-6.99083 -0.67299,0.19542 -27.58076,4.58451 -59.79504,9.75354 -32.21429,5.16902 -58.60331,9.44667 -58.64227,9.50588 -0.039,0.0592 -17.00544,32.44535 -37.70329,71.96921 -20.69784,39.52386 -38.02942,72.40447 -38.51462,73.06802 -0.82624,1.12994 -3.96172,1.06843 -49.43957,-0.96978 -26.70657,-1.19693 -60.12882,-2.66598 -74.27168,-3.26456 -14.14286,-0.59858 -27.368996,-1.25998 -29.391419,-1.46979 l -3.67713,-0.38146 -3.33783,-14.06485 c -1.835806,-7.73567 -3.798402,-15.72571 -4.361326,-17.75565 l -1.023496,-3.6908 -7.675829,-1.78293 c -4.221706,-0.98062 -10.996544,-2.52421 -15.055197,-3.43022 -7.216508,-1.61093 -7.370667,-1.68718 -6.985108,-3.45484 0.216842,-0.99416 9.515227,-35.71827 20.663076,-77.1647 l 20.268818,-75.35714 76.094441,0.16284 76.09443,0.16285 0.45692,-2.30571 c 0.2513,-1.26813 7.22719,-34.04933 15.50198,-72.84712 L 279.7531,418.46794 251.93356,378.65221 C 236.63282,356.75357 218.14742,330.31863 210.8549,319.90792 l -13.25913,-18.92858 6.55568,-0.45576 c 3.60562,-0.25067 22.69377,-0.49174 42.41812,-0.53571 l 35.86245,-0.0799 155.75738,-44.17936 c 85.66657,-24.29865 155.95166,-44.37364 156.18911,-44.61108 0.32906,-0.32907 -15.61217,-103.78907 -17.35566,-112.639729 l -0.35208,-1.787307 22.72383,-2.626076 c 12.49812,-1.444342 22.83587,-2.514056 22.97278,-2.377142 0.13692,0.136914 4.29409,26.390794 9.23817,58.341954 4.94409,31.95116 9.04366,58.17574 9.11017,58.27684 0.0665,0.10109 29.48654,-1.7363 65.37785,-4.08308 35.8913,-2.3468 65.41655,-4.10724 65.61169,-3.9121 0.19514,0.19513 2.69414,21.31823 5.55336,46.94022 l 5.19864,46.58543 3.97072,170 c 2.18392,93.5 3.87942,171.59372 3.76778,173.5416 l -0.20293,3.54161 -60.08976,-66.75589 c -33.04936,-36.71574 -61.08688,-67.69313 -62.30559,-68.83864 l -2.21583,-2.08275 -38.76584,7.35964 c -21.32121,4.04781 -39.42015,7.60268 -40.21987,7.89971 -1.17752,0.43737 -2.65267,4.36547 -7.75694,20.65562 l -6.30291,20.11555 3.09866,3.71035 c 4.81527,5.7658 151.06487,178.80476 155.7944,184.33212 l 4.19913,4.9075 -2.36058,1.60165 c -1.29832,0.88091 -7.76365,5.02235 -14.36741,9.20319 l -12.00682,7.60153 -18.49878,-15.00354 c -10.17432,-8.25195 -18.6981,-15.00354 -18.94173,-15.00354 -0.24362,0 -7.18451,5.34419 -15.42418,11.87599 -13.79243,10.9336 -14.95031,12.0247 -14.59156,13.75 0.21433,1.0307 1.34983,7.98115 2.52334,15.44544 1.17351,7.46429 2.28586,14.42235 2.47187,15.46237 0.3185,1.78076 -1.31897,3.03983 -28.10086,21.60713 -15.6415,10.84393 -28.56436,19.68364 -28.71748,19.64379 -0.15312,-0.04 -8.05218,-2.64736 -17.55347,-5.79436 z"
       id="path68"
       transform="scale(0.26458333)"
       inkscape:export-filename="C:\Users\Benja\Desktop\testUnity\Assets\map.png"
       inkscape:export-xdpi="117.97"
       inkscape:export-ydpi="117.97" />
    <path
       style="fill:#ffffff;stroke-width:0.714286"
       d="m 315.30257,221.24122 c -0.0261,-4.0726 -0.45126,-24.44045 -0.94485,-45.26188 L 313.46027,138.1222 286.89492,85.067984 c -17.86221,-35.672996 -26.2695,-53.165785 -25.66229,-53.394768 4.93028,-1.859255 50.15328,-16.681745 50.33651,-16.498517 0.13355,0.133555 -0.88969,2.888791 -2.27388,6.122746 -1.38419,3.233956 -2.51671,6.146136 -2.51671,6.471511 0,0.325375 6.99107,2.908463 15.53571,5.740193 8.54464,2.83173 15.75802,5.34953 16.02974,5.595112 0.2717,0.245581 -0.72123,8.160797 -2.20652,17.589368 l -2.70053,17.142857 1.94213,2.857143 c 9.83495,14.468586 67.39201,94.333961 68.09949,94.493911 0.77077,0.17426 22.76062,-5.5693 25.82548,-6.74539 1.19984,-0.46043 20.07225,24.60669 19.15824,25.44677 -0.43776,0.40235 -119.92969,35.21951 -131.86232,38.4216 -1.12953,0.30312 -1.25456,-0.37817 -1.2974,-7.0693 z"
       id="path70"
       transform="scale(0.26458333)"
       inkscape:export-filename="C:\Users\Benja\Desktop\testUnity\Assets\map.png"
       inkscape:export-xdpi="117.97"
       inkscape:export-ydpi="117.97" />
    <path
       style="fill:#ffffff;stroke-width:0.714286"
       d="m 194.6829,150.08649 c 0.026,-0.6875 1.39928,-10.35702 3.05181,-21.48782 2.19441,-14.78079 3.28915,-20.39197 4.05992,-20.80949 1.59609,-0.8646 51.37573,-13.729178 52.10954,-13.466699 0.35103,0.12556 5.65521,4.505926 11.78707,9.734149 l 11.14883,9.50585 -0.4978,4.42272 c -0.27379,2.43249 -1.17157,9.887 -1.99505,16.56557 l -1.49725,12.14286 -35.35714,2.27173 c -43.10575,2.76958 -42.87196,2.76346 -42.80993,1.12113 z"
       id="path72"
       transform="scale(0.26458333)"
       inkscape:export-filename="C:\Users\Benja\Desktop\testUnity\Assets\map.png"
       inkscape:export-xdpi="117.97"
       inkscape:export-ydpi="117.97" />
    <path
       style="fill:#ffffff;stroke-width:0.714286"
       d="m 416.49359,696.15792 c -0.20486,-1.66965 -0.50771,-9.97238 -0.67298,-18.45053 l -0.30051,-15.4148 7.35641,-2.66753 c 7.23433,-2.62327 8.10319,-3.29362 8.27277,-6.38271 0.0468,-0.85179 1.13516,8.57628 2.41866,20.95128 1.2835,12.375 2.19779,22.64567 2.03174,22.82372 -0.34714,0.37222 -13.93416,2.10924 -16.81308,2.14945 -1.73045,0.0242 -1.95739,-0.27361 -2.29301,-3.00888 z"
       id="path74"
       transform="scale(0.26458333)"
       inkscape:export-filename="C:\Users\Benja\Desktop\testUnity\Assets\map.png"
       inkscape:export-xdpi="117.97"
       inkscape:export-ydpi="117.97" />
    <path
       style="fill:#ffffff;stroke-width:0.714286"
       d="m 432.92225,786.51506 c -1.32357,-6.52629 -7.59038,-59.00599 -7.09843,-59.44383 0.32867,-0.29252 3.88727,-2.265 7.908,-4.3833 l 7.31041,-3.85144 4.60135,4.64285 4.60135,4.64286 2.93206,27.14286 c 1.61263,14.92857 3.00233,28.10675 3.08823,29.28485 l 0.15618,2.14198 -10,0.83031 c -14.08701,1.16966 -13.04186,1.24764 -13.49915,-1.00714 z"
       id="path76"
       transform="scale(0.26458333)"
       inkscape:export-filename="C:\Users\Benja\Desktop\testUnity\Assets\map.png"
       inkscape:export-xdpi="117.97"
       inkscape:export-ydpi="117.97" />
    <path
       style="fill:#ffffff;stroke:#000000;stroke-width:0.264583px;stroke-linecap:butt;stroke-linejoin:miter;stroke-opacity:1"
       d="m -108.99319,243.99471 22.149969,21.68223 -14.733239,17.03844 8.051499,2.93996 14.36573,-10.22306 -1.20271,-9.12057 8.65285,-6.64833 9.88898,7.75082 6.78196,-4.2095 -28.96533,-34.77844 z"
       id="path104"
       inkscape:export-filename="C:\Users\Benja\Desktop\testUnity\Assets\map.png"
       inkscape:export-xdpi="117.97"
       inkscape:export-ydpi="117.97" />
    <path
       style="fill:#ffffff;stroke:#000000;stroke-width:0.264583px;stroke-linecap:butt;stroke-linejoin:miter;stroke-opacity:1"
       d="m -213.06046,134.74851 -3.44903,1.81901 1.96075,15.54427 5.2208,-0.42523 -1.63002,-14.78831 z"
       id="path106"
       inkscape:export-filename="C:\Users\Benja\Desktop\testUnity\Assets\map.png"
       inkscape:export-xdpi="117.97"
       inkscape:export-ydpi="117.97" />
    <path
       style="fill:#ffffff;stroke:#000000;stroke-width:0.264583px;stroke-linecap:butt;stroke-linejoin:miter;stroke-opacity:1"
       d="m 412.17964,78.629144 -21.21452,-20.81362 1.09068,-31.45168 36.69612,5.69731 -4.92249,15.56384 13.39453,15.59152 z"
       id="path108"
       sodipodi:nodetypes="ccccccc"
       inkscape:export-filename="C:\Users\Benja\Desktop\testUnity\Assets\map.png"
       inkscape:export-xdpi="117.97"
       inkscape:export-ydpi="117.97" />
    <path
       style="fill:#ffffff;stroke:#000000;stroke-width:0.264583px;stroke-linecap:butt;stroke-linejoin:miter;stroke-opacity:1"
       d="m -217.29107,201.05473 8.95353,-0.13363 -10.15624,35.61367 -8.15172,-1.40317 z"
       id="path112"
       sodipodi:nodetypes="ccccc"
       inkscape:export-filename="C:\Users\Benja\Desktop\testUnity\Assets\map.png"
       inkscape:export-xdpi="117.97"
       inkscape:export-ydpi="117.97" />
    <path
       style="fill:#ffffff;stroke:#000000;stroke-width:0.264583px;stroke-linecap:butt;stroke-linejoin:miter;stroke-opacity:1"
       d="m -173.41964,189.7155 0.93544,-3.14041 9.42125,1.60361 10.7576,-37.15046 h 30.06782 l 18.57523,13.63075 -19.71113,38.01909 -39.48907,-1.60362 -2.27179,-9.35444 z"
       id="path116"
       inkscape:export-filename="C:\Users\Benja\Desktop\testUnity\Assets\map.png"
       inkscape:export-xdpi="117.97"
       inkscape:export-ydpi="117.97" />
    <path
       style="fill:#ffffff;stroke:#000000;stroke-width:0.264583px;stroke-linecap:butt;stroke-linejoin:miter;stroke-opacity:1"
       d="m -126.43304,95.438984 18.99331,14.363096 29.48214,-5.10268 2.07887,-38.742556 -42.61682,-7.08705 z"
       id="path118"
       sodipodi:nodetypes="cccccc"
       inkscape:export-filename="C:\Users\Benja\Desktop\testUnity\Assets\map.png"
       inkscape:export-xdpi="117.97"
       inkscape:export-ydpi="117.97" />
    <path
       style="fill:#ffffff;stroke:#000000;stroke-width:0.264583px;stroke-linecap:butt;stroke-linejoin:miter;stroke-opacity:1"
       d="m 230.8962,232.03013 21.59189,30.00186 43.98698,7.70127 1.03944,-2.78757 -8.45722,-1.55916 -0.90997,-21.27551 9.50893,-5.98602 -17.74344,-14.18284 -27.49535,8.11831 z"
       id="path120"
       sodipodi:nodetypes="cccccccccc"
       inkscape:export-filename="C:\Users\Benja\Desktop\testUnity\Assets\map.png"
       inkscape:export-xdpi="117.97"
       inkscape:export-ydpi="117.97" />
    <path
       style="fill:#ffffff;stroke:#000000;stroke-width:0.264583px;stroke-linecap:butt;stroke-linejoin:miter;stroke-opacity:1"
       d="m 237.51079,25.891368 -1.46466,10.299853 19.13504,-1.039436 0.8977,-7.701264 -5.6224,-4.677455 z"
       id="path122"
       inkscape:export-filename="C:\Users\Benja\Desktop\testUnity\Assets\map.png"
       inkscape:export-xdpi="117.97"
       inkscape:export-ydpi="117.97" />
    <path
       style="fill:#ffffff;stroke:#000000;stroke-width:0.264583px;stroke-linecap:butt;stroke-linejoin:miter;stroke-opacity:1"
       d="m 277.8447,7.9971246 14.43256,27.9296664 0.46772,21.782466 32.13916,-8.886711 -3.67496,-4.877671 -6.54811,1.937705 -19.97839,-27.929665 1.1359,-7.550365 -7.61719,-2.6726951 1.33635,-3.5413211 z"
       id="path124"
       sodipodi:nodetypes="ccccccccccc"
       inkscape:export-filename="C:\Users\Benja\Desktop\testUnity\Assets\map.png"
       inkscape:export-xdpi="117.97"
       inkscape:export-ydpi="117.97" />
    <path
       style="fill:#ffffff;stroke:#000000;stroke-width:0.264583px;stroke-linecap:butt;stroke-linejoin:miter;stroke-opacity:1"
       d="m 462.45438,190.3023 -1.93764,-4.10178 -8.97694,5.43341 0.8032,19.89099 7.89026,1.51191 z"
       id="path126"
       inkscape:export-filename="C:\Users\Benja\Desktop\testUnity\Assets\map.png"
       inkscape:export-xdpi="117.97"
       inkscape:export-ydpi="117.97" />
    <path
       style="fill:#ffffff;stroke:#000000;stroke-width:0.264583px;stroke-linecap:butt;stroke-linejoin:miter;stroke-opacity:1"
       d="m 232.03446,106.89207 14.11132,10.90409 5.07812,-6.01356 -12.3201,-7.17853 z"
       id="path128"
       sodipodi:nodetypes="ccccc"
       inkscape:export-filename="C:\Users\Benja\Desktop\testUnity\Assets\map.png"
       inkscape:export-xdpi="117.97"
       inkscape:export-ydpi="117.97" />
    <path
       style="fill:#ffffff;stroke:#000000;stroke-width:0.264583px;stroke-linecap:butt;stroke-linejoin:miter;stroke-opacity:1"
       d="m 304.36532,193.76004 2.07887,2.07887 5.76414,-6.99256 -2.69308,-1.22842 z"
       id="path130"
       inkscape:export-filename="C:\Users\Benja\Desktop\testUnity\Assets\map.png"
       inkscape:export-xdpi="117.97"
       inkscape:export-ydpi="117.97" />
    <path
       style="fill:#ffffff;stroke:#000000;stroke-width:0.264583px;stroke-linecap:butt;stroke-linejoin:miter;stroke-opacity:1"
       d="m 366.68415,251.87389 2.17336,-21.02493 34.1596,1.13393 10.63058,3.07105 -10.15811,22.58408 z"
       id="path132"
       sodipodi:nodetypes="cccccc"
       inkscape:export-filename="C:\Users\Benja\Desktop\testUnity\Assets\map.png"
       inkscape:export-xdpi="117.97"
       inkscape:export-ydpi="117.97" />
    <path
       style="fill:#ffffff;stroke:#000000;stroke-width:0.264583px;stroke-linecap:butt;stroke-linejoin:miter;stroke-opacity:1"
       d="m 252.58259,82.068078 6.04761,-14.504834 -21.68638,6.142112 z"
       id="path134"
       inkscape:export-filename="C:\Users\Benja\Desktop\testUnity\Assets\map.png"
       inkscape:export-xdpi="117.97"
       inkscape:export-ydpi="117.97" />
    <path
       style="fill:#ffffff;stroke:#000000;stroke-width:0.264583px;stroke-linecap:butt;stroke-linejoin:miter;stroke-opacity:1"
       d="m 283.95461,157.09635 1.13393,-12.52046 -2.03162,-4.11049 7.37053,-8.64621 6.28386,-15.07179 24.09598,-6.94532 -1.88988,-10.016367 9.82738,-1.795386 1.98438,12.662203 33.54538,-2.45685 2.74033,21.16667 -16.91443,9.16592 14.55208,15.21355 -10.86682,10.29985 -24.28497,-3.11831 -12.28422,-3.59077 z"
       id="path136"
       inkscape:export-filename="C:\Users\Benja\Desktop\testUnity\Assets\map.png"
       inkscape:export-xdpi="117.97"
       inkscape:export-ydpi="117.97" />
    <path
       style="fill:#ffffff;stroke:#000000;stroke-width:0.264583px;stroke-linecap:butt;stroke-linejoin:miter;stroke-opacity:1"
       d="m 360.37204,34.117494 -3.27406,-18.374779 10.3567,-1.202713 2.47224,17.907058 z"
       id="path138"
       inkscape:export-filename="C:\Users\Benja\Desktop\testUnity\Assets\map.png"
       inkscape:export-xdpi="117.97"
       inkscape:export-ydpi="117.97" />
    <path
       style="fill:#ffffff;stroke:#000000;stroke-width:0.264583px;stroke-linecap:butt;stroke-linejoin:miter;stroke-opacity:1"
       d="m -97.360383,-22.623383 -11.893497,26.8605899 20.646567,-4.07585996 31.40417,35.74730006 -1.80406,-69.623717 -14.29893,14.232107 z"
       id="path140"
       sodipodi:nodetypes="ccccccc"
       inkscape:export-filename="C:\Users\Benja\Desktop\testUnity\Assets\map.png"
       inkscape:export-xdpi="117.97"
       inkscape:export-ydpi="117.97" />
    <path
       style="fill:#ffffff;stroke:#000000;stroke-width:0.264583px;stroke-linecap:butt;stroke-linejoin:miter;stroke-opacity:1"
       d="m 422.42178,105.83345 -15.23437,8.01809 13.09621,13.63074 3.14042,-2.93996 z"
       id="path142"
       inkscape:export-filename="C:\Users\Benja\Desktop\testUnity\Assets\map.png"
       inkscape:export-xdpi="117.97"
       inkscape:export-ydpi="117.97" />
    <path
       style="fill:#ffffff;stroke:#000000;stroke-width:0.264583px;stroke-linecap:butt;stroke-linejoin:miter;stroke-opacity:1"
       d="m -223.15973,71.863555 0.23386,9.28762 c 0,0 4.5937,-0.50113 4.5937,-0.56795 0,-0.0668 -0.93545,-10.67407 -0.93545,-10.67407 l -0.61806,0.80181 z"
       id="path144"
       inkscape:export-filename="C:\Users\Benja\Desktop\testUnity\Assets\map.png"
       inkscape:export-xdpi="117.97"
       inkscape:export-ydpi="117.97" />
  </g>
</svg>
